SplineFontDB: 3.2
FontName: Untitled1
FullName: Untitled1
FamilyName: Untitled1
Weight: Regular
Copyright: Copyright (c) 2022, havey
UComments: "2022-11-23: Created with FontForge (http://fontforge.org)"
Version: 001.000
ItalicAngle: 0
UnderlinePosition: -100
UnderlineWidth: 50
Ascent: 800
Descent: 200
InvalidEm: 0
LayerCount: 2
Layer: 0 0 "Back" 1
Layer: 1 0 "Fore" 0
XUID: [1021 928 -57925278 23855]
StyleMap: 0x0000
FSType: 0
OS2Version: 0
OS2_WeightWidthSlopeOnly: 0
OS2_UseTypoMetrics: 1
CreationTime: 1669173039
ModificationTime: 1672330709
OS2TypoAscent: 0
OS2TypoAOffset: 1
OS2TypoDescent: 0
OS2TypoDOffset: 1
OS2TypoLinegap: 90
OS2WinAscent: 0
OS2WinAOffset: 1
OS2WinDescent: 0
OS2WinDOffset: 1
HheadAscent: 0
HheadAOffset: 1
HheadDescent: 0
HheadDOffset: 1
OS2Vendor: 'PfEd'
DEI: 91125
Encoding: Custom
UnicodeInterp: none
NameList: AGL For New Fonts
DisplaySize: -48
AntiAlias: 1
FitToEm: 0
WinInfo: 0 38 14
BeginChars: 25 25

StartChar: play
Encoding: 0 57344 0
Width: 1000
Flags: H
LayerCount: 2
Fore
SplineSet
923 300 m 1
 255 -86 l 1
 255 686 l 1
 923 300 l 1
EndSplineSet
Validated: 1
EndChar

StartChar: next
Encoding: 1 57345 1
Width: 1000
Flags: H
LayerCount: 2
Fore
SplineSet
667 300 m 1
 188 -78 l 1
 188 678 l 1
 667 300 l 1
698 -78 m 1
 698 678 l 1
 812 678 l 1
 812 -78 l 1
 698 -78 l 1
EndSplineSet
Validated: 1
EndChar

StartChar: prev
Encoding: 2 57346 2
Width: 1000
Flags: H
LayerCount: 2
Fore
SplineSet
333 300 m 1
 812 678 l 1
 812 -78 l 1
 333 300 l 1
302 -78 m 1
 188 -78 l 1
 188 678 l 1
 302 678 l 1
 302 -78 l 1
EndSplineSet
Validated: 1
EndChar

StartChar: back
Encoding: 3 57347 3
Width: 1000
UnlinkRmOvrlpSave: 1
HStem: 253 94<288 826>
LayerCount: 2
Fore
SplineSet
221 253 m 1
 221 347 l 1
 826 347 l 1
 826 253 l 1
 221 253 l 1
288 280 m 1
 221 347 l 1
 542 668 l 1
 609 601 l 1
 288 280 l 1
221 253 m 1
 288 320 l 1
 609 -1 l 1
 542 -68 l 1
 221 253 l 1
221 253 m 1
 174 299 l 1
 221 347 l 1
 221 253 l 1
EndSplineSet
EndChar

StartChar: home
Encoding: 4 57348 4
Width: 1000
Flags: H
LayerCount: 2
Fore
SplineSet
500 678 m 1
 920 300 l 1
 778 300 l 1
 778 -78 l 1
 594 -78 l 1
 594 154 l 1
 406 154 l 1
 406 -78 l 1
 232 -78 l 1
 232 300 l 1
 80 300 l 1
 500 678 l 1
EndSplineSet
Validated: 1
EndChar

StartChar: more
Encoding: 5 57349 5
Width: 1000
Flags: H
LayerCount: 2
Fore
SplineSet
424 565 m 0
 424 607 458 640 500 640 c 0
 542 640 576 607 576 565 c 0
 576 523 542 489 500 489 c 0
 458 489 424 523 424 565 c 0
424 300 m 0
 424 342 458 376 500 376 c 0
 542 376 576 342 576 300 c 0
 576 258 542 224 500 224 c 0
 458 224 424 258 424 300 c 0
424 35 m 0
 424 77 458 111 500 111 c 0
 542 111 576 77 576 35 c 0
 576 -7 542 -40 500 -40 c 0
 458 -40 424 -7 424 35 c 0
EndSplineSet
Validated: 1
EndChar

StartChar: moon
Encoding: 6 57350 6
Width: 1000
Flags: H
LayerCount: 2
Fore
SplineSet
637 693 m 4
 637 693 l 0
 638 693 l 0
 679 693 718 687 755 675 c 1
 596 625 480 476 480 300 c 0
 480 124 596 -25 755 -75 c 1
 718 -87 679 -93 638 -93 c 0
 421 -93 245 83 245 300 c 0
 245 517 420 693 637 693 c 4
EndSplineSet
Validated: 5
EndChar

StartChar: locate
Encoding: 7 57351 7
Width: 1000
UnlinkRmOvrlpSave: 1
HStem: -35 94<400.625 599.242> 540 94<400.625 599.242>
VStem: 165 94<200.625 399.242> 740 94<200.625 399.242>
LayerCount: 2
Fore
SplineSet
259 300 m 0
 259 433 367 540 500 540 c 0
 633 540 740 433 740 300 c 0
 740 167 633 59 500 59 c 0
 367 59 259 167 259 300 c 0
165 300 m 0
 165 115 315 -35 500 -35 c 0
 685 -35 834 115 834 300 c 0
 834 485 685 634 500 634 c 0
 315 634 165 485 165 300 c 0
82 347 m 1
 82 253 l 1
 918 253 l 1
 918 347 l 1
 82 347 l 1
547 718 m 1
 453 718 l 1
 453 -118 l 1
 547 -118 l 1
 547 718 l 1
EndSplineSet
EndChar

StartChar: info
Encoding: 8 57352 8
Width: 1000
Flags: H
LayerCount: 2
Fore
SplineSet
445 456 m 0
 445 487 471 513 502 513 c 0
 533 513 559 487 559 456 c 0
 559 425 533 400 502 400 c 0
 471 400 445 425 445 456 c 0
415 355 m 1
 415 261 l 1
 460 261 l 1
 460 82 l 1
 555 82 l 1
 555 355 l 1
 509 355 461 355 415 355 c 1
197 300 m 0
 197 467 333 603 500 603 c 0
 667 603 803 467 803 300 c 0
 803 133 667 -3 500 -3 c 0
 333 -3 197 133 197 300 c 0
103 300 m 0
 103 81 281 -97 500 -97 c 0
 719 -97 897 81 897 300 c 0
 897 519 719 697 500 697 c 0
 281 697 103 519 103 300 c 0
EndSplineSet
Validated: 9
EndChar

StartChar: wave
Encoding: 9 57353 9
Width: 1000
Flags: H
LayerCount: 2
Fore
SplineSet
351 257 m 1
 382 217 430 166 493 166 c 0
 551 166 603 207 646 295 c 1
 707 181 802 93 910 116 c 1
 890 209 l 0
 806 191 717 338 689 436 c 2
 646 591 l 1
 599 437 l 2
 580 376 557 323 534 292 c 0
 515 267 501 261 493 261 c 0
 470 261 430 297 384 380 c 2
 335 466 l 1
 298 375 l 2
 229 205 174 118 90 104 c 1
 106 11 l 0
 232 32 302 149 351 257 c 1
EndSplineSet
Validated: 41
EndChar

StartChar: single
Encoding: 11 57355 10
Width: 1000
Flags: H
LayerCount: 2
Fore
SplineSet
569 482 m 1
 884 300 l 1
 569 118 l 1
 569 253 l 1
 115 253 l 1
 115 347 l 1
 569 347 l 1
 569 482 l 1
EndSplineSet
Validated: 1
EndChar

StartChar: single_loop
Encoding: 12 57356 11
Width: 1000
Flags: H
LayerCount: 2
Fore
SplineSet
443 354 m 1
 443 297 l 1
 480 297 l 1
 480 138 l 1
 537 138 l 1
 537 326 l 2
 537 342 524 354 508 354 c 2
 443 354 l 1
500 714 m 1
 500 627 l 1
 702 627 870 458 870 256 c 0
 870 54 702 -114 500 -114 c 0
 298 -114 130 54 130 256 c 1
 224 256 l 1
 224 106 350 -19 500 -19 c 0
 650 -19 776 106 776 256 c 0
 776 406 650 532 500 532 c 1
 500 448 l 1
 270 581 l 1
 500 714 l 1
EndSplineSet
Validated: 9
EndChar

StartChar: list
Encoding: 13 57357 12
Width: 1000
Flags: H
LayerCount: 2
Fore
SplineSet
340 546 m 1
 340 432 l 1
 831 432 l 1
 831 546 l 1
 340 546 l 1
169 489 m 0
 169 520 195 546 226 546 c 0
 257 546 282 520 282 489 c 0
 282 458 257 432 226 432 c 0
 195 432 169 458 169 489 c 0
340 357 m 1
 340 243 l 1
 831 243 l 1
 831 357 l 1
 340 357 l 1
169 300 m 0
 169 331 195 357 226 357 c 0
 257 357 282 331 282 300 c 0
 282 269 257 243 226 243 c 0
 195 243 169 269 169 300 c 0
340 168 m 1
 340 54 l 1
 831 54 l 1
 831 168 l 1
 340 168 l 1
169 111 m 0
 169 142 195 168 226 168 c 0
 257 168 282 142 282 111 c 0
 282 80 257 54 226 54 c 0
 195 54 169 80 169 111 c 0
EndSplineSet
Validated: 9
EndChar

StartChar: list_loop
Encoding: 14 57358 13
Width: 1000
Flags: H
LayerCount: 2
Fore
SplineSet
500 714 m 1
 500 627 l 1
 702 627 870 458 870 256 c 0
 870 54 702 -114 500 -114 c 0
 298 -114 130 54 130 256 c 1
 224 256 l 1
 224 106 350 -19 500 -19 c 0
 650 -19 776 106 776 256 c 0
 776 406 650 532 500 532 c 1
 500 448 l 1
 270 581 l 1
 500 714 l 1
409 377 m 1
 409 323 l 1
 642 323 l 1
 642 377 l 1
 409 377 l 1
328 350 m 0
 328 365 340 377 355 377 c 0
 370 377 382 365 382 350 c 0
 382 335 370 323 355 323 c 0
 340 323 328 335 328 350 c 0
409 287 m 1
 409 233 l 1
 642 233 l 1
 642 287 l 1
 409 287 l 1
328 260 m 0
 328 275 340 287 355 287 c 0
 370 287 382 275 382 260 c 0
 382 245 370 233 355 233 c 0
 340 233 328 245 328 260 c 0
409 198 m 1
 409 144 l 1
 642 144 l 1
 642 198 l 1
 409 198 l 1
328 171 m 0
 328 186 340 198 355 198 c 0
 370 198 382 186 382 171 c 0
 382 156 370 144 355 144 c 0
 340 144 328 156 328 171 c 0
EndSplineSet
Validated: 9
EndChar

StartChar: midi
Encoding: 10 57354 14
Width: 1000
UnlinkRmOvrlpSave: 1
HStem: -60 204<290.473 492.904> 565 95<590 781>
VStem: 219 371<-4.28902 88.289> 496 94<131 565>
LayerCount: 2
Back
SplineSet
590.102539062 565.075195312 m 1
 780.7734375 565.075195312 l 1
 780.7734375 659.563476562 l 1
 685.719726562 659.563476562 590.666992188 659.563476562 495.614257812 659.563476562 c 1
 495.614257812 131.368338118 l 1
 551.977997701 113.857169741 590.06640625 80.5878021803 590.06640625 42.4619140625 c 0
 590.06640625 42.2130081416 590.061541588 41.9643092138 590.061541588 41.7158203125 c 1
 590.102539062 41.7158203125 l 1
 590.102539062 565.075195312 l 1
495.614257812 131.368338118 m 1
 468.732252329 139.720078532 437.693161064 144.487304688 404.646484375 144.487304688 c 4
 302.310546875 144.487304688 219.2265625 98.771484375 219.2265625 42.4619140625 c 4
 219.2265625 -13.84765625 302.310546875 -59.5634765625 404.646484375 -59.5634765625 c 0
 506.530065009 -59.5634765625 589.331515665 -14.2509194628 590.061541588 41.7158203125 c 1025
EndSplineSet
Fore
SplineSet
496 660 m 1xd0
 781 660 l 1
 781 565 l 1
 590 565 l 1xd0
 590 42 l 1
 589 -14 507 -60 405 -60 c 0
 303 -60 219 -14 219 42 c 0xe0
 219 98 303 144 405 144 c 0
 438 144 469 139 496 131 c 1
 496 660 l 1xd0
EndSplineSet
EndChar

StartChar: pause
Encoding: 15 57359 15
Width: 1000
Flags: H
LayerCount: 2
Fore
SplineSet
623 -78 m 1
 623 678 l 1
 793 678 l 1
 793 -78 l 1
 623 -78 l 1
207 -78 m 1
 207 678 l 1
 377 678 l 1
 377 -78 l 1
 207 -78 l 1
EndSplineSet
Validated: 1
EndChar

StartChar: replay
Encoding: 16 57360 16
Width: 1000
Flags: H
LayerCount: 2
Fore
SplineSet
500 714 m 1
 500 627 l 1
 702 627 870 458 870 256 c 0
 870 54 702 -114 500 -114 c 0
 298 -114 130 54 130 256 c 1
 224 256 l 1
 224 106 350 -19 500 -19 c 0
 650 -19 776 106 776 256 c 0
 776 406 650 532 500 532 c 1
 500 448 l 1
 270 581 l 1
 500 714 l 1
EndSplineSet
Validated: 1
EndChar

StartChar: audio
Encoding: 17 57361 17
Width: 1000
Flags: H
LayerCount: 2
Fore
SplineSet
197 300 m 0
 197 467 333 603 500 603 c 0
 667 603 803 467 803 300 c 0
 803 133 667 -3 500 -3 c 0
 333 -3 197 133 197 300 c 0
103 300 m 0
 103 81 281 -97 500 -97 c 0
 719 -97 897 81 897 300 c 0
 897 519 719 697 500 697 c 0
 281 697 103 519 103 300 c 0
689 300 m 1
 393 129 l 1
 393 471 l 1
 689 300 l 1
EndSplineSet
Validated: 9
EndChar

StartChar: uncheck
Encoding: 18 57362 18
Width: 1000
Flags: H
LayerCount: 2
Fore
SplineSet
166 531 m 2
 166 69 l 2
 166 35 166 16 178 -3 c 0
 184 -13 197 -27 222 -32 c 0
 239 -35 251 -34 269 -34 c 2
 731 -34 l 2
 765 -34 784 -34 803 -22 c 0
 813 -16 827 -3 832 22 c 0
 835 39 834 51 834 69 c 2
 834 531 l 2
 834 564 834 580 825 598 c 0
 816 616 798 630 768 633 c 0
 756 634 745 634 731 634 c 2
 269 634 l 2
 235 634 216 634 197 622 c 0
 187 616 173 603 168 578 c 0
 165 561 166 549 166 531 c 2
260 60 m 0
 260 70 260 535 260 540 c 0
 270 540 735 540 740 540 c 0
 740 530 740 65 740 60 c 0
 730 60 265 60 260 60 c 0
EndSplineSet
Validated: 41
EndChar

StartChar: check
Encoding: 19 57363 19
Width: 1000
Flags: H
LayerCount: 2
Fore
SplineSet
269 634 m 2
 731 634 l 2
 788 634 834 588 834 531 c 2
 834 69 l 2
 834 12 788 -34 731 -34 c 2
 269 -34 l 2
 212 -34 166 12 166 69 c 2
 166 531 l 2
 166 588 212 634 269 634 c 2
409 79 m 0
 422 79 434 84 443 93 c 2
 790 440 l 1
 723 507 l 1
 409 193 l 1
 277 326 l 1
 210 259 l 2
 376 93 l 2
 385 84 396 79 409 79 c 0
EndSplineSet
Validated: 1
EndChar

StartChar: synth
Encoding: 20 57364 20
Width: 1000
Flags: H
LayerCount: 2
Fore
SplineSet
161 639 m 1
 839 639 l 1
 839 -39 l 1
 161 -39 l 1
 161 592 l 1
 161 639 l 1
255 545 m 1
 255 55 l 1
 745 55 l 1
 745 545 l 1
 646 545 l 1
 646 252 l 1
 552 252 l 1
 552 545 l 1
 447 545 l 1
 447 252 l 1
 353 252 l 1
 353 545 l 1
 255 545 l 1
EndSplineSet
Validated: 1
EndChar

StartChar: volume
Encoding: 21 57365 21
Width: 1000
Flags: H
LayerCount: 2
Fore
SplineSet
120 153 m 1
 120 447 l 1
 253 447 l 1
 253 153 l 1
 120 153 l 1
253 447 m 1
 498 654 l 1
 498 -54 l 1
 253 153 l 1
 253 447 l 1
686 543 m 1
 818 411 818 189 686 57 c 1
 753 -10 l 1
 922 159 922 441 753 610 c 1
 686 543 l 1
553 406 m 1
 610 349 610 251 553 194 c 1
 620 127 l 1
 714 221 714 379 620 473 c 1
 553 406 l 1
EndSplineSet
EndChar

StartChar: folder
Encoding: 22 57366 22
Width: 1000
Flags: H
LayerCount: 2
Fore
SplineSet
123 551 m 2
 123 567 125 591 137 603 c 0
 149 615 186 615 186 615 c 1
 394 615 l 1
 394 615 418 617 434 605 c 0
 450 593 489 541 509 514 c 0
 537 481 535 479 575 479 c 2
 823 479 l 1
 823 479 851 480 863 468 c 0
 875 456 876 430 876 430 c 1
 876 31 l 1
 876 31 877 7 866 -5 c 0
 855 -16 828 -15 828 -15 c 1
 178 -15 l 1
 178 -15 154 -15 139 -1 c 0
 125 12 124 31 124 31 c 1
 123 551 l 2
EndSplineSet
EndChar

StartChar: settings
Encoding: 23 57367 23
Width: 1000
Flags: H
LayerCount: 2
Fore
SplineSet
213 -107 m 1
 81 25 l 1
 506 450 l 1
 638 318 l 1
 213 -107 l 1
664 707 m 0
 692 707 719 702 744 692 c 1
 577 525 l 1
 709 393 l 1
 876 560 l 1
 885 535 891 508 891 480 c 0
 891 355 789 252 664 252 c 0
 539 252 436 355 436 480 c 0
 436 605 539 707 664 707 c 0
EndSplineSet
EndChar

StartChar: connect
Encoding: 24 57368 24
Width: 1000
Flags: H
LayerCount: 2
Fore
SplineSet
574 547 m 0
 638 547 701 523 749 475 c 1
 682 408 l 1
 624 466 524 466 466 408 c 0
 408 350 408 250 466 192 c 0
 524 134 624 134 682 192 c 1
 749 125 l 1
 653 29 495 29 399 125 c 0
 363 161 341 206 332 253 c 1
 109 253 l 1
 109 347 l 1
 332 347 l 1
 341 394 363 439 399 475 c 0
 447 523 510 547 574 547 c 0
574 381 m 0
 601 381 625 367 640 347 c 1
 891 347 l 1
 891 253 l 1
 640 253 l 0
 625 233 601 219 574 219 c 0
 529 219 493 255 493 300 c 0
 493 345 529 381 574 381 c 0
EndSplineSet
EndChar
